<svg width="20" height="44" viewBox="0 0 20 44" fill="none" xmlns="http://www.w3.org/2000/svg">
<path d="M17.3664 14.635L14.0914 15.22L16.3747 17.875L18.0164 17.575L17.3664 14.635ZM11.6414 15.655L9.9997 15.9475L12.2914 18.595L13.9247 18.3025L11.6414 15.655ZM7.55803 16.375L5.91637 16.6825L8.20803 19.33L9.84136 19.0375L7.55803 16.375ZM3.46637 17.125L2.6497 17.2675C2.21669 17.3454 1.8357 17.5747 1.5904 17.9052C1.3451 18.2356 1.25553 18.6402 1.34137 19.03L1.66637 20.5L5.7497 19.7725L3.46637 17.125ZM1.66637 20.5V28C1.66637 28.8325 2.41637 29.5 3.33303 29.5H16.6664C17.5914 29.5 18.333 28.8325 18.333 28V20.5H1.66637Z" fill="white"/>
</svg>
